<?xml version="1.0" encoding="utf-8"?>
<!-- Generator: Adobe Illustrator 21.0.2, SVG Export Plug-In . SVG Version: 6.00 Build 0)  -->
<svg version="1.1" xmlns="http://www.w3.org/2000/svg" xmlns:xlink="http://www.w3.org/1999/xlink" x="0px" y="0px"
	 viewBox="0 0 800 800" style="enable-background:new 0 0 800 800;" xml:space="preserve">
<style type="text/css">
	.st0{display:none;}
	.st1{display:inline;stroke:#FFFFFF;stroke-miterlimit:10;}
	.st2{stroke:#FFFFFF;stroke-width:14;stroke-miterlimit:10;}
	.st3{fill:none;stroke:#FFFFFF;stroke-width:14;stroke-miterlimit:10;}
	.st4{fill:none;stroke:#FFFFFF;stroke-width:12;stroke-miterlimit:10;}
	.st5{fill:none;stroke:#FFFFFF;stroke-width:4;stroke-miterlimit:10;}
</style>
<g id="Layer_1" class="st0">
	<rect x="0.5" y="0.5" class="st1" width="800" height="800"/>
</g>
<g id="Layer_2">
	<line class="st2" x1="363" y1="752" x2="421" y2="515"/>
	<line class="st2" x1="480" y1="751" x2="421" y2="515"/>
	<line class="st3" x1="421" y1="515" x2="422" y2="262"/>
	<line class="st4" x1="421" y1="328" x2="177" y2="208"/>
	<line class="st4" x1="490" y1="397" x2="421" y2="328"/>
	<line class="st4" x1="422.4" y1="463.4" x2="488.6" y2="391.6"/>
	<circle class="st4" cx="421" cy="158" r="104"/>
	<path class="st4" d="M435.9,207.1c-18.2,16.8-46.5,15.6-63.3-2.6"/>
	<circle class="st4" cx="370" cy="142" r="11"/>
	<circle class="st4" cx="443" cy="142" r="11"/>
	<path class="st5" d="M387.4,161H353c-6.6,0-12-5.4-12-12v-14c0-6.6,5.4-12,12-12h34.4c6.6,0,12,5.4,12,12v14
		C399.4,155.6,394,161,387.4,161z"/>
	<path class="st5" d="M460.4,161H426c-6.6,0-12-5.4-12-12v-14c0-6.6,5.4-12,12-12h34.4c6.6,0,12,5.4,12,12v14
		C472.4,155.6,467,161,460.4,161z"/>
	<path class="st5" d="M399,142c0.6,0,1,0,1,0h14"/>
	<line class="st5" x1="472" y1="142" x2="525" y2="134"/>
	<line class="st5" x1="341" y1="143.1" x2="318" y2="134.9"/>
</g>
<g id="Layer_4" class="st0">
</g>
<g id="Layer_3" class="st0">
</g>
</svg>
