<?xml version="1.0" encoding="utf-8"?>
<!-- Generator: Adobe Illustrator 21.0.2, SVG Export Plug-In . SVG Version: 6.00 Build 0)  -->
<svg version="1.1" id="Layer_1" xmlns="http://www.w3.org/2000/svg" xmlns:xlink="http://www.w3.org/1999/xlink" x="0px" y="0px"
	 viewBox="0 0 356.6 705.7" style="enable-background:new 0 0 356.6 705.7;" xml:space="preserve">
<style type="text/css">
	.st0{fill:none;stroke:#000000;stroke-width:14;stroke-miterlimit:10;}
	.st1{fill:none;stroke:#000000;stroke-width:12;stroke-miterlimit:10;}
	.st2{fill:none;stroke:#000000;stroke-width:4;stroke-miterlimit:10;}
</style>
<g id="Layer_2">
	<line class="st0" x1="188.6" y1="704" x2="246.6" y2="467"/>
	<line class="st0" x1="305.6" y1="703" x2="246.6" y2="467"/>
	<line class="st0" x1="246.6" y1="467" x2="247.6" y2="214"/>
	<line class="st1" x1="246.6" y1="280" x2="2.6" y2="160"/>
	<line class="st1" x1="315.6" y1="349" x2="246.6" y2="280"/>
	<line class="st1" x1="248" y1="415.4" x2="314.2" y2="343.6"/>
	<circle class="st1" cx="246.6" cy="110" r="104"/>
	<path class="st1" d="M261.5,159.1c-18.2,16.8-46.5,15.6-63.3-2.6"/>
	<circle class="st1" cx="195.6" cy="94" r="11"/>
	<circle class="st1" cx="268.6" cy="94" r="11"/>
	<path class="st2" d="M213,113h-34.4c-6.6,0-12-5.4-12-12V87c0-6.6,5.4-12,12-12H213c6.6,0,12,5.4,12,12v14
		C225,107.6,219.6,113,213,113z"/>
	<path class="st2" d="M286,113h-34.4c-6.6,0-12-5.4-12-12V87c0-6.6,5.4-12,12-12H286c6.6,0,12,5.4,12,12v14
		C298,107.6,292.6,113,286,113z"/>
	<path class="st2" d="M224.6,94c0.6,0,1,0,1,0h14"/>
	<line class="st2" x1="297.6" y1="94" x2="350.6" y2="86"/>
	<line class="st2" x1="166.6" y1="95.1" x2="143.6" y2="86.9"/>
</g>
</svg>
